<svg xmlns="http://www.w3.org/2000/svg" height="800" width="1200" viewBox="-71.83125 -26.82825 622.5375 160.9695"><path fill="#4c4c4c" d="M0 66.001h21L22.5 48 2.999 43.501zM3.75 40.5L22.5 45 27 29.25l-15.75-8.249zM12.749 18l15 8.25L39.75 18 28.5 5.25zm84 48.001H75.75L74.249 48l19.501-4.499zM92.999 40.5L74.249 45 69.75 29.25l15.749-8.249zm-9-22.5l-15 8.25L57 18 68.25 5.25zM32.25 3L43.5 16.5h10.499L63.75 3l-9.751-3H43.236z"/><path fill="#9c0000" d="M0 66.001h21L22.5 48 2.999 43.501z"/><path fill="#b50808" d="M3.75 40.5L22.5 45 27 29.25l-15.75-8.249z"/><path fill="#c61818" d="M12.749 18l15 8.25L39.75 18 28.5 5.25z"/><path fill="#9c0000" d="M96.749 66.001H75.75L74.249 48l19.501-4.499z"/><path fill="#b50808" d="M92.999 40.5L74.249 45 69.75 29.25l15.749-8.249z"/><path fill="#c61818" d="M83.999 18l-15 8.25L57 18 68.25 5.25z"/><path fill="#ce3129" d="M32.25 3L43.5 16.5h10.499L63.75 3l-9.751-3H43.236z"/><path fill="#9c0000" d="M122.375 18.719v47.25h8.156V49.094l15.375 16.875h7.344v-3.313L139.844 48.72c3.493-.442 6.25-2.136 8.281-5.063 2.031-2.926 3.081-6.233 3.125-9.937.066-4.3-1.322-7.856-4.125-10.657-2.803-2.8-7.416-4.243-13.875-4.343zm37.719 0v47.25h26.25V58.53H168.25v-13.5h13.281v-7.343H168.25V26h17.344v-7.281zm34.125 0v47.25h13.5c4.428-.074 7.997-1.237 10.687-3.5 2.69-2.263 4.637-5.187 5.844-8.75 1.206-3.563 1.771-7.339 1.75-11.313.034-3.928-.462-7.66-1.531-11.25-1.07-3.59-2.892-6.537-5.469-8.843-2.577-2.307-6.134-3.515-10.625-3.594zM130.53 25.78h2.719c3.389.024 5.833.711 7.375 2.094 1.542 1.383 2.305 3.32 2.281 5.781-.005 2.553-.667 4.716-2.031 6.5-1.364 1.785-3.395 2.703-6.063 2.782-1.03-.041-1.993-.185-2.875-.47-.88-.284-1.35-.459-1.406-.5zm71.781 0h5.782c2.858.087 4.983 1.056 6.375 2.907 1.391 1.85 2.293 4.05 2.719 6.625.424 2.575.604 4.988.562 7.25a35.09 35.09 0 01-.656 7.25c-.485 2.499-1.455 4.625-2.906 6.374-1.452 1.75-3.606 2.642-6.47 2.72h-5.405z"/><path fill="#ce3129" d="M235.688 18.719v47.25h8.187V39.938l-.625-5.47 10.969 31.5h6.75l10.937-31.5-.594 5.47v26.03h8.188v-47.25h-9.625l-11.25 32.032a25.216 25.216 0 00-.781 2.906c-.166.817-.253 1.242-.25 1.282.003-.035-.085-.447-.25-1.25-.166-.804-.44-1.779-.813-2.938l-11.25-32.031zm54.593 0v47.25h8.094v-47.25zm18.531 0v47.25H317V39.125a39.296 39.296 0 00-.281-4.313c-.153-1.224-.228-1.843-.25-1.906l14.906 33.063h7.875v-47.25h-8.156a1508841.454 1508841.454 0 000 30.687c-.016-.115-.247-.922-.656-2.406a36.576 36.576 0 00-1.532-4.438l-10.5-23.843zm41.407 0v47.25h26.25V58.53h-18.094v-13.5h13.281v-7.343h-13.281V26h17.344v-7.281z"/><path fill="#636363" d="M130.5 79.063c-.072-.028-.567.04-1.5.218-.933.179-1.88.63-2.813 1.344-.932.713-1.428 1.86-1.5 3.438v1.75h-2v2.343l2 .344v12.625h3.282V88.562h2.844v-2.75h-2.844V84.22c.038-.851.316-1.477.812-1.875.497-.399.972-.64 1.469-.75.497-.11.774-.17.813-.156zm2.625.343V94.72c.016 1.784.113 3.188.313 4.219.2 1.03.405 1.762.593 2.187h3.375c-.345-1.134-.6-2.17-.781-3.125-.181-.954-.28-2.053-.281-3.281V79.406zm43.281 0v20.156a10.74 10.74 0 002.594 1.47c.936.369 1.9.551 2.906.562 1.655-.035 2.977-.496 3.938-1.406.96-.911 1.626-2.066 2.031-3.438.405-1.372.605-2.768.594-4.188.007-1.804-.449-3.445-1.375-4.906-.927-1.46-2.367-2.226-4.313-2.312-.537.017-1.107.181-1.687.5a5.243 5.243 0 00-1.406 1.094v-7.532zm15.219 0V94.72c.016 1.784.113 3.188.313 4.219.2 1.03.405 1.762.593 2.187h3.375c-.345-1.134-.6-2.17-.781-3.125-.181-.954-.28-2.053-.281-3.281V79.406zm-21.281.469a2.225 2.225 0 00-1.531.625 2.14 2.14 0 00-.688 1.531c.017.59.225 1.071.625 1.438.4.366.89.551 1.469.562a2.224 2.224 0 001.531-.625c.43-.406.667-.922.688-1.531-.017-.59-.226-1.071-.625-1.438-.4-.366-.89-.55-1.47-.562zm95.969 0a2.229 2.229 0 00-1.532.625c-.43.406-.667.922-.687 1.531.017.59.225 1.071.625 1.438.4.366.89.551 1.469.562a2.224 2.224 0 001.53-.625c.431-.406.668-.922.688-1.531-.017-.59-.225-1.071-.625-1.438-.4-.366-.89-.55-1.469-.562zm33.875 3.188v2.75h-2.094v2.343l1.969.344v9.25c-.013 1.062.235 1.953.718 2.688.484.734 1.278 1.124 2.406 1.156.726.002 1.314-.069 1.75-.219.437-.15.963-.393 1.594-.719l-.781-2.312a3.843 3.843 0 01-1.625.406c-.36-.014-.569-.118-.656-.344a1.827 1.827 0 01-.125-.75v-9.062h2.719v-2.781h-2.782v-2.75zm172.343 0v2.75h-2.094v2.343l1.97.344v9.25c-.013 1.062.234 1.953.718 2.688.484.734 1.278 1.124 2.406 1.156.725.002 1.314-.069 1.75-.219.436-.15.962-.393 1.594-.719l-.781-2.312a3.843 3.843 0 01-1.625.406c-.36-.014-.57-.118-.656-.344a1.827 1.827 0 01-.125-.75v-9.062h2.718v-2.781h-2.781v-2.75zm-325.906 2.28c-2.124.082-3.778.904-4.938 2.438-1.159 1.534-1.735 3.295-1.75 5.313-.01 1.325.18 2.645.563 3.937.383 1.293 1.009 2.357 1.906 3.219.898.862 2.125 1.31 3.656 1.344.906-.028 1.857-.278 2.844-.75.988-.473 1.829-1.004 2.531-1.594l-1.093-2.125a9.775 9.775 0 01-1.938 1.156c-.748.34-1.478.512-2.156.531-1.11-.097-1.89-.69-2.344-1.812-.453-1.121-.672-2.184-.656-3.156a3.402 3.402 0 01.031-.563h8.938c-.001-.343.009-.687 0-1.031-.01-.344-.03-.688-.031-1.031-.084-1.516-.652-2.863-1.688-4.031-1.036-1.17-2.323-1.781-3.875-1.844zm58.5 0c-2.124.082-3.778.904-4.938 2.438-1.159 1.534-1.735 3.295-1.75 5.313-.01 1.325.18 2.645.563 3.937.383 1.293 1.009 2.357 1.906 3.219.898.862 2.125 1.31 3.656 1.344.906-.028 1.857-.278 2.844-.75.988-.473 1.829-1.004 2.531-1.594l-1.093-2.125a9.775 9.775 0 01-1.938 1.156c-.748.34-1.478.512-2.156.531-1.11-.097-1.89-.69-2.344-1.812-.453-1.121-.672-2.184-.656-3.156a3.402 3.402 0 01.031-.563h8.938c-.001-.343.009-.687 0-1.031-.01-.344-.03-.688-.031-1.031-.084-1.516-.652-2.863-1.688-4.031-1.036-1.17-2.323-1.781-3.875-1.844zm25.156 0c-.885.044-1.627.262-2.219.657-.591.395-.974.707-1.156.938v-1.126h-3.312v20.782h3.312v-6.563a2.79 2.79 0 001.344 1.188c.578.25 1.188.378 1.844.375 1.568-.04 2.77-.51 3.625-1.438.855-.928 1.454-2.092 1.781-3.437a15.77 15.77 0 00.469-3.938 9.41 9.41 0 00-1.375-5c-.927-1.53-2.367-2.34-4.313-2.437zm15 0c-.536.067-1.057.348-1.562.813-.505.465-.776.715-.813.781v-1.124h-3.312v15.312h3.281V89.719c.031-.058.266-.287.688-.688.421-.4.843-.63 1.28-.687.402.023.787.117 1.157.281.37.164.568.258.594.281l.531-3.094c-.003-.019-.154-.081-.469-.218-.315-.137-.778-.23-1.375-.25zm9.625 0c-2.106.101-3.687.97-4.719 2.626-1.031 1.655-1.534 3.493-1.53 5.5-.004 2.02.499 3.85 1.53 5.5 1.032 1.649 2.613 2.526 4.72 2.625 2.105-.099 3.686-.976 4.718-2.625 1.032-1.65 1.534-3.48 1.531-5.5.003-2.007-.5-3.845-1.531-5.5-1.032-1.655-2.613-2.525-4.719-2.625zm23.094 0c-2.124.082-3.778.904-4.938 2.438-1.159 1.534-1.735 3.295-1.75 5.313-.01 1.325.18 2.645.563 3.937.383 1.293 1.009 2.357 1.906 3.219.898.862 2.125 1.31 3.656 1.344.906-.028 1.857-.278 2.844-.75.988-.473 1.829-1.004 2.531-1.594l-1.093-2.125a9.775 9.775 0 01-1.938 1.156c-.748.34-1.478.512-2.156.531-1.11-.097-1.89-.69-2.344-1.812-.453-1.121-.672-2.184-.656-3.156a3.402 3.402 0 01.031-.563h8.938c-.001-.343.009-.687 0-1.031-.01-.344-.03-.688-.031-1.031-.084-1.516-.652-2.863-1.688-4.031-1.036-1.17-2.323-1.781-3.875-1.844zm14.313 0c-1.456.033-2.662.474-3.594 1.313-.932.84-1.617 1.897-2.063 3.156-.446 1.26-.66 2.52-.656 3.813 0 1.25.232 2.476.688 3.688.455 1.21 1.141 2.226 2.062 3.03.92.806 2.074 1.22 3.469 1.25.866-.014 1.735-.23 2.625-.624.89-.394 1.665-.876 2.312-1.469l-1.125-2.25a8.876 8.876 0 01-1.687 1.063c-.662.32-1.308.48-1.906.5-.797-.034-1.414-.357-1.875-1a6.228 6.228 0 01-1-2.25c-.195-.85-.287-1.602-.282-2.25-.003-.616.105-1.32.313-2.126a6.127 6.127 0 011-2.124c.45-.611 1.023-.937 1.75-.97.482.006.99.12 1.5.313s.94.433 1.312.75l1.656-1.937c-.529-.625-1.224-1.094-2.062-1.406-.838-.313-1.643-.47-2.438-.47zm33.687 0c-.67.033-1.38.238-2.156.594-.776.357-1.346.672-1.688.97v-1.094h-3.281v15.312h3.281v-11.25c.309-.262.824-.59 1.563-1 .738-.41 1.441-.645 2.094-.688.52.01.87.209 1.062.563.193.354.292.802.281 1.375v11h3.281V89.594c.353-.278.808-.559 1.375-.875a4.155 4.155 0 011.875-.531c.521-.009.87.117 1.063.343.193.227.292.602.281 1.156v11.438h3.281V89.687c.032-1.233-.262-2.246-.906-3.062-.644-.816-1.829-1.25-3.531-1.281-.788.038-1.564.27-2.344.687-.78.418-1.43.79-1.937 1.125-.328-.444-.778-.848-1.375-1.219-.597-.37-1.345-.57-2.219-.593zm21.906 0c-1.007.02-2.004.302-2.969.813-.964.512-1.758 1.137-2.406 1.906l1.125 1.97c.503-.489 1.126-.91 1.844-1.282.718-.371 1.419-.574 2.125-.594.54-.01.983.089 1.313.313.329.224.49.635.5 1.219v1.53l-6.72 2.907c-.23.438-.433.938-.624 1.5-.192.563-.301 1.094-.313 1.594 0 1.371.34 2.452 1.031 3.219.691.766 1.736 1.143 3.125 1.156.883-.004 1.63-.207 2.25-.594.62-.387 1.165-.934 1.625-1.656.137.694.45 1.235.938 1.625.488.39 1.082.587 1.781.594a4.022 4.022 0 001.156-.188 4.465 4.465 0 001.063-.469l-.844-1.656a2.965 2.965 0 01-.281.125.814.814 0 01-.281.063c-.23-.01-.384-.084-.469-.25a1.189 1.189 0 01-.125-.563v-8.906c-.026-1.495-.49-2.6-1.375-3.313-.885-.713-2.036-1.067-3.469-1.062zm17.063 0c-.698.016-1.443.188-2.219.5-.776.313-1.427.673-1.969 1.094v-1.124H357.5v15.312h3.281V89.812c.401-.327.974-.668 1.688-1.03.713-.363 1.411-.564 2.125-.594.502-.008.838.123 1 .374.162.252.232.663.219 1.25v11.313h3.28V89.812c.048-1.211-.202-2.26-.75-3.124-.546-.864-1.671-1.305-3.374-1.344zm13.719 0c-1.008.02-2.005.302-2.97.813-.963.512-1.758 1.137-2.406 1.906l1.125 1.97c.504-.489 1.126-.91 1.844-1.282.718-.371 1.419-.574 2.125-.594.54-.01.983.089 1.313.313.33.224.49.635.5 1.219v1.53l-6.719 2.907c-.23.438-.434.938-.625 1.5-.191.563-.3 1.094-.313 1.594 0 1.371.341 2.452 1.032 3.219.69.766 1.735 1.143 3.125 1.156.882-.004 1.63-.207 2.25-.594.62-.387 1.164-.934 1.625-1.656.136.694.449 1.235.937 1.625.489.39 1.082.587 1.781.594a4.022 4.022 0 001.157-.188 4.465 4.465 0 001.062-.469l-.844-1.656a2.965 2.965 0 01-.28.125.814.814 0 01-.282.063c-.23-.01-.383-.084-.469-.25a1.189 1.189 0 01-.125-.563v-8.906c-.026-1.495-.49-2.6-1.375-3.313-.885-.713-2.036-1.067-3.469-1.062zm14.375 0c-1.68.02-3.008.524-4 1.5-.993.978-1.508 2.309-1.532 4-.004.91.2 1.795.625 2.657.426.862 1.098 1.497 2 1.906a4.092 4.092 0 00-1.5.938c-.433.424-.664.95-.687 1.562.018.55.2 1.045.562 1.469.362.424.795.67 1.281.75-.623.255-1.24.667-1.843 1.219-.604.552-.924 1.213-.969 2 .068 1.464.67 2.493 1.781 3.094 1.112.6 2.323.895 3.656.874a8.215 8.215 0 004.72-1.468c1.41-.968 2.166-2.369 2.25-4.219-.034-1.129-.432-1.973-1.188-2.563-.756-.59-1.67-.902-2.75-.906h-1c-.448.028-1.08.046-1.875.031-.795-.014-1.225-.23-1.313-.624.047-.502.297-.838.75-1.032.453-.193.828-.326 1.125-.375.187-.045.356-.068.531-.094.176-.025.36-.064.532-.093 1.273-.323 2.254-.912 2.937-1.781.683-.87 1.024-1.959 1.031-3.25a5.872 5.872 0 00-.125-1.188 13.107 13.107 0 00-.312-1.125h1.781v-2.813h-3.906a5.383 5.383 0 00-1.25-.374 7.79 7.79 0 00-1.313-.094zm15.125 0c-2.125.082-3.779.904-4.938 2.438-1.16 1.534-1.735 3.295-1.75 5.313-.01 1.325.179 2.645.563 3.937.383 1.293 1.008 2.357 1.906 3.219.897.862 2.124 1.31 3.656 1.344.906-.028 1.856-.278 2.844-.75.987-.473 1.829-1.004 2.531-1.594l-1.094-2.125a9.775 9.775 0 01-1.937 1.156c-.749.34-1.478.512-2.156.531-1.11-.097-1.891-.69-2.344-1.812-.453-1.121-.672-2.184-.656-3.156a3.402 3.402 0 01.03-.563h8.938c0-.343.01-.687 0-1.031-.009-.344-.03-.688-.031-1.031-.083-1.516-.651-2.863-1.688-4.031-1.036-1.17-2.322-1.781-3.875-1.844zm16.187 0c-.67.033-1.38.238-2.156.594-.776.357-1.346.672-1.688.97v-1.094h-3.281v15.312h3.281v-11.25c.309-.262.824-.59 1.563-1 .738-.41 1.441-.645 2.094-.688.52.01.87.209 1.062.563.193.354.292.802.281 1.375v11h3.281V89.594c.353-.278.808-.559 1.375-.875a4.155 4.155 0 011.875-.531c.521-.009.87.117 1.063.343.193.227.292.602.281 1.156v11.438h3.281V89.687c.032-1.233-.262-2.246-.906-3.062-.644-.816-1.829-1.25-3.531-1.281-.788.038-1.564.27-2.344.687-.78.418-1.43.79-1.937 1.125-.328-.444-.778-.848-1.375-1.219-.597-.37-1.345-.57-2.219-.593zm22.625 0c-2.124.082-3.778.904-4.938 2.438-1.159 1.534-1.735 3.295-1.75 5.313-.01 1.325.18 2.645.563 3.937.383 1.293 1.009 2.357 1.906 3.219.898.862 2.125 1.31 3.656 1.344.906-.028 1.857-.278 2.844-.75.988-.473 1.829-1.004 2.531-1.594l-1.093-2.125a9.775 9.775 0 01-1.938 1.156c-.748.34-1.478.512-2.156.531-1.11-.097-1.89-.69-2.344-1.812-.453-1.121-.672-2.184-.656-3.156a3.402 3.402 0 01.031-.563h8.938c-.001-.343.009-.687 0-1.031-.01-.344-.03-.688-.031-1.031-.084-1.516-.652-2.863-1.688-4.031-1.036-1.17-2.323-1.781-3.875-1.844zm16.5 0c-.698.016-1.443.188-2.219.5-.776.313-1.427.673-1.969 1.094v-1.124h-3.28v15.312h3.28V89.812c.402-.327.974-.668 1.688-1.03.714-.363 1.411-.564 2.125-.594.502-.008.838.123 1 .374.162.252.232.663.219 1.25v11.313h3.281V89.812c.047-1.211-.203-2.26-.75-3.124-.547-.864-1.672-1.305-3.375-1.344zm-309.594.47l4.156 7.406-4.437 7.906h3.594l2.656-5.188 2.75 5.188h3.75l-4.688-8.094c.2-.335.623-1.074 1.282-2.219.658-1.144 1.3-2.255 1.906-3.312l.969-1.688h-3.594l-2.344 4.594-2.312-4.594zm14.75 0v15.312h3.219V85.812zm96 0v16.437c-.024.659-.245 1.216-.687 1.656-.442.44-.96.748-1.531.938l.687 2.344c1.018-.267 2.06-.738 3.094-1.438 1.034-.7 1.575-1.812 1.656-3.313V85.814zm128.219 1.906c.814.039 1.37.383 1.688 1 .318.617.482 1.273.468 2a3.921 3.921 0 01-.437 1.937c-.306.578-.858.872-1.656.906-.898-.03-1.49-.337-1.782-.937-.292-.6-.43-1.314-.406-2.125a3.654 3.654 0 01.469-1.906c.315-.554.857-.845 1.656-.875zm-246.469.062c.795.026 1.397.302 1.813.844.416.542.658 1.193.719 1.938h-5.22a4.773 4.773 0 01.876-1.907c.42-.547 1.024-.847 1.812-.875zm58.5 0c.795.026 1.397.302 1.813.844.416.542.658 1.193.719 1.938h-5.22a4.773 4.773 0 01.876-1.907c.42-.547 1.024-.847 1.812-.875zm72.875 0c.795.026 1.397.302 1.813.844.416.542.658 1.193.719 1.938h-5.22a4.773 4.773 0 01.876-1.907c.42-.547 1.024-.847 1.812-.875zm130.188 0c.795.026 1.396.302 1.812.844.416.542.658 1.193.719 1.938h-5.219a4.773 4.773 0 01.875-1.907c.42-.547 1.025-.847 1.813-.875zm38.812 0c.795.026 1.397.302 1.813.844.416.542.658 1.193.719 1.938h-5.22a4.773 4.773 0 01.876-1.907c.42-.547 1.024-.847 1.812-.875zm-191.875.375c.93.05 1.668.591 2.188 1.625.52 1.034.773 2.263.781 3.688-.008 1.438-.261 2.66-.781 3.687-.52 1.028-1.257 1.578-2.188 1.625-.93-.047-1.667-.597-2.187-1.625-.52-1.028-.773-2.25-.781-3.687.008-1.425.26-2.654.78-3.688.52-1.034 1.258-1.575 2.188-1.625zm-72.406.125c1.094.086 1.812.633 2.156 1.656.344 1.024.5 2.008.469 2.938.01.665-.065 1.473-.219 2.406-.153.933-.44 1.744-.875 2.469-.434.725-1.072 1.117-1.906 1.156a3.746 3.746 0 01-1.25-.25 5.81 5.81 0 01-1.188-.594v-8.218c.336-.325.774-.656 1.313-1 .539-.345 1.04-.535 1.5-.563zm47.469 0c1.12.091 1.855.675 2.187 1.75.332 1.076.473 2.097.438 3.063.011.591-.043 1.341-.156 2.219-.114.877-.342 1.65-.72 2.343-.377.693-.97 1.055-1.75 1.094-1.275-.091-2.098-.69-2.5-1.813-.4-1.122-.598-2.22-.562-3.28v-3.813a7.309 7.309 0 011.313-1.031 3.462 3.462 0 011.75-.532zM349.5 94v.563c-.008 1-.29 1.96-.844 2.874-.554.916-1.336 1.405-2.344 1.47-.47-.018-.819-.195-1.062-.532a1.99 1.99 0 01-.375-1.188c.003-.22.044-.45.094-.687.05-.237.09-.466.156-.688zm30.781 0v.563c-.008 1-.289 1.96-.844 2.874-.554.916-1.335 1.405-2.343 1.47-.47-.018-.82-.195-1.063-.532a1.99 1.99 0 01-.375-1.188c.003-.22.044-.45.094-.687.05-.237.091-.466.156-.688zm11.781 6.688h1.813c.468-.025.965.032 1.5.156.534.123.829.462.875 1.031-.04.975-.42 1.72-1.156 2.25a4.29 4.29 0 01-2.531.813c-.604.014-1.127-.113-1.594-.407-.467-.293-.725-.843-.75-1.625.077-.653.4-1.187.937-1.594.538-.406.83-.612.906-.624z"/></svg>