<?xml version="1.0"?>
<svg xmlns="http://www.w3.org/2000/svg" viewBox="0 0 50 50">
    <path style="text-indent:0;text-align:start;line-height:normal;text-transform:none;block-progression:tb;-inkscape-font-specification:Sans" d="M 10 2 C 8.3550302 2 7 3.3550302 7 5 L 7 41 C 7 42.64497 8.3550302 44 10 44 L 13 44 L 13 47 L 13 48.625 L 14.4375 47.90625 L 18 46.125 L 21.5625 47.90625 L 23 48.625 L 23 47 L 23 44 L 40 44 C 41.64497 44 43 42.64497 43 41 L 43 5 C 43 3.3550302 41.64497 2 40 2 L 10 2 z M 10 4 L 40 4 C 40.56503 4 41 4.4349698 41 5 L 41 34 L 9 34 L 9 5 C 9 4.4349698 9.4349698 4 10 4 z M 13 7 L 13 8 L 13 12 L 13 13 L 14 13 L 18 13 L 19 13 L 19 12 L 19 8 L 19 7 L 18 7 L 14 7 L 13 7 z M 15 9 L 17 9 L 17 11 L 15 11 L 15 9 z M 13 16 L 13 17 L 13 21 L 13 22 L 14 22 L 18 22 L 19 22 L 19 21 L 19 17 L 19 16 L 18 16 L 14 16 L 13 16 z M 15 18 L 17 18 L 17 20 L 15 20 L 15 18 z M 13 25 L 13 26 L 13 30 L 13 31 L 14 31 L 18 31 L 19 31 L 19 30 L 19 26 L 19 25 L 18 25 L 14 25 L 13 25 z M 15 27 L 17 27 L 17 29 L 15 29 L 15 27 z M 9 36 L 41 36 L 41 41 C 41 41.56503 40.56503 42 40 42 L 23 42 L 23 39 L 23 38 L 22 38 L 14 38 L 13 38 L 13 39 L 13 42 L 10 42 C 9.4349698 42 9 41.56503 9 41 L 9 36 z M 15 40 L 21 40 L 21 45.375 L 18.4375 44.09375 L 18 43.875 L 17.5625 44.09375 L 15 45.375 L 15 40 z"/>
</svg>
