<?xml version="1.0" standalone="no"?>
<!DOCTYPE svg PUBLIC "-//W3C//DTD SVG 20010904//EN"
 "http://www.w3.org/TR/2001/REC-SVG-20010904/DTD/svg10.dtd">
<svg version="1.0" xmlns="http://www.w3.org/2000/svg"
 width="600.000000pt" height="600.000000pt" viewBox="0 0 600.000000 600.000000"
 preserveAspectRatio="xMidYMid meet">

<g transform="translate(0.000000,600.000000) scale(0.100000,-0.100000)"
fill="#000000" stroke="none">
<path d="M2930 5988 c-112 -17 -144 -41 -458 -353 l-293 -290 344 -343 344
-344 62 13 c217 42 449 -92 520 -302 23 -69 29 -207 11 -269 l-10 -35 327
-328 c309 -309 330 -328 358 -323 195 34 338 -4 454 -123 195 -199 173 -515
-49 -690 -85 -67 -146 -86 -280 -86 -112 0 -117 1 -191 36 -204 98 -310 319
-254 534 l16 59 -306 306 -305 305 0 -812 0 -811 43 -25 c122 -72 207 -228
209 -382 1 -126 -34 -221 -116 -312 -176 -196 -477 -207 -662 -25 -82 81 -126
173 -140 292 -18 164 83 358 233 442 l53 30 0 816 0 817 -47 25 c-68 35 -155
127 -193 203 -54 110 -60 200 -25 357 5 22 -32 63 -332 363 l-338 337 -917
-917 c-809 -810 -920 -925 -943 -975 -35 -76 -47 -158 -35 -233 22 -135 -54
-54 1414 -1521 1465 -1465 1388 -1393 1522 -1414 38 -6 81 -6 119 0 135 22 54
-53 1516 1409 1456 1457 1387 1383 1407 1513 11 71 1 148 -28 219 -21 49 -156
187 -1374 1407 -743 744 -1369 1364 -1392 1378 -82 49 -171 66 -264 52z"/>
</g>
</svg>
