<?xml version="1.0" standalone="no"?>
<!DOCTYPE svg PUBLIC "-//W3C//DTD SVG 20010904//EN"
 "http://www.w3.org/TR/2001/REC-SVG-20010904/DTD/svg10.dtd">
<svg version="1.0" xmlns="http://www.w3.org/2000/svg"
 width="980.000000pt" height="980.000000pt" viewBox="0 0 980.000000 980.000000"
 preserveAspectRatio="xMidYMid meet">

<g transform="translate(0.000000,980.000000) scale(0.100000,-0.100000)"
fill="#000000" stroke="none">
<path d="M8542 9760 c-52 -27 -105 -77 -379 -361 -175 -182 -319 -335 -321
-339 -4 -10 1245 -1225 1258 -1225 5 0 150 138 322 306 354 346 372 369 373
479 0 118 -5 124 -495 634 -242 253 -456 470 -475 483 -91 62 -189 70 -283 23z"/>
<path d="M945 9209 c-270 -29 -536 -175 -709 -391 -84 -103 -167 -269 -204
-403 l-27 -100 0 -3705 0 -3705 28 -99 c55 -196 140 -342 281 -482 146 -145
307 -237 505 -287 l86 -22 3715 0 3715 0 90 24 c203 53 355 140 500 286 154
154 236 302 296 540 11 40 14 579 16 2634 4 2842 8 2640 -57 2729 -82 114
-346 242 -499 242 -63 0 -191 -29 -243 -56 -100 -50 -194 -156 -244 -274 -18
-44 -19 -113 -24 -2430 l-5 -2385 -34 -63 c-40 -74 -93 -124 -171 -161 l-55
-26 -3285 0 -3285 0 -57 27 c-70 33 -145 105 -178 173 l-25 50 0 3285 0 3285
26 55 c33 70 99 136 169 169 l55 26 2340 5 c2272 5 2341 6 2375 24 140 76 262
191 315 299 49 99 62 182 47 309 -27 224 -110 361 -254 416 -40 16 -247 17
-2583 18 -1397 1 -2576 -2 -2620 -7z"/>
<path d="M5993 7251 l-1528 -1509 -215 -543 c-118 -298 -223 -562 -232 -586
l-18 -43 297 -323 c163 -177 299 -323 302 -324 3 -2 284 143 624 320 l618 324
1462 1416 c804 778 1483 1437 1510 1464 l47 49 -482 455 c-265 249 -566 534
-669 631 l-187 178 -1529 -1509z"/>
<path d="M3745 4198 c-15 -43 -145 -581 -141 -585 4 -5 608 83 660 96 28 6 21
14 -237 254 -146 136 -269 247 -272 247 -3 0 -8 -6 -10 -12z"/>
</g>
</svg>
