<?xml version="1.0" encoding="iso-8859-1"?>
<!-- Generator: Adobe Illustrator 18.0.0, SVG Export Plug-In . SVG Version: 6.00 Build 0)  -->
<!DOCTYPE svg PUBLIC "-//W3C//DTD SVG 1.1//EN" "http://www.w3.org/Graphics/SVG/1.1/DTD/svg11.dtd">
<svg version="1.1" id="Capa_1" xmlns="http://www.w3.org/2000/svg" xmlns:xlink="http://www.w3.org/1999/xlink" x="0px" y="0px"
	 viewBox="0 0 305.093 305.093" style="enable-background:new 0 0 305.093 305.093;" xml:space="preserve">
<g>
	<g>
		<path d="M148.048,185.018c-0.376-7.991-7.259-14.139-15.259-14.139h-3.921c4.507-2.789,7.421-7.905,7.022-13.682
			c-0.543-7.848-7.346-13.802-15.213-13.802h-10.832c0.447,5.277-1.26,12.514-5.056,16.767c-1.525,1.709-3.271,3.007-5.15,3.934
			c-0.634,0.313-0.423,1.257,0.284,1.257h3.872c1.605,0,3.157,0.773,3.988,2.145c1.8,2.972-0.438,6.632-3.749,6.632h-23.66
			c-0.846,0-1.674,0.244-2.384,0.702l-0.006,0.004c-3.261,2.133-5.28,5.765-5.28,9.767c0,4.001,2.019,7.632,5.28,9.766l0.002,0.001
			c0.743,0.469,1.603,0.718,2.482,0.718h28.972c2.945,0,5.064,2.901,4.19,5.674c-0.598,1.897-2.471,3.103-4.46,3.103H80.467
			c-0.878,0-1.739,0.249-2.482,0.718l-0.002,0.001c-3.261,2.133-5.28,5.765-5.28,9.766c0,4.001,2.019,7.633,5.28,9.767l0.002,0.001
			c0.669,0.459,1.462,0.705,2.273,0.705h20.17c2.597,0,4.865,2.416,4.302,5.262c-0.412,2.082-2.348,3.515-4.47,3.515H80.449
			c-0.839,0-1.671,0.223-2.378,0.676c-3.313,2.126-5.368,5.786-5.368,9.823c0,5.532,3.96,10.364,9.368,11.459h26.976
			c7.867,0,14.67-5.955,15.212-13.803c0.399-5.776-2.515-10.891-7.02-13.68h4.436c7.867,0,14.67-5.955,15.212-13.803
			c0.399-5.776-2.515-10.891-7.02-13.68h3.342C141.652,200.593,148.45,193.55,148.048,185.018z"/>
		<path d="M72.82,156.484c0.471,3.379,2.391,6.358,5.25,8.194c0.705,0.453,1.536,0.676,2.374,0.676h2.473
			c0.722,0,0.923-0.982,0.26-1.267c-2.317-0.997-4.514-2.386-6.462-4.124L72.82,156.484z"/>
	</g>
	<path d="M63.926,154.856c0-1.943,0.29-3.816,0.797-5.598l-3.177-2.836c-1.544-1.379-1.782-3.851-0.312-5.499
		c1.435-1.605,3.896-1.743,5.499-0.311l15.17,13.54c5.121,4.57,12.781,3.94,17.164-0.972c4.465-5.002,4.029-12.703-0.972-17.167
		L71.487,112.26c-4.859-4.338-12.232-4.09-16.786,0.566l-0.115,0.112c-34.657,32.695-42.231,40.804-45.009,44.307
		C2.309,166.408,0,173.196,0,183.04v30.485c0,23.178,18.856,42.034,42.034,42.034c8.484,0,16.949,0,25.408,0
		c-2.208-3.258-3.517-7.288-3.517-11.459c0-5.758,2.38-11.086,6.396-14.874c-4.016-3.789-6.396-9.117-6.396-14.875
		c0-5.758,2.38-11.086,6.396-14.874c-4.016-3.788-6.396-9.116-6.396-14.874c0-5.758,2.38-11.086,6.396-14.874
		C66.305,165.94,63.926,160.613,63.926,154.856z"/>
	<g>
		<path d="M227.107,164.623l0.003-0.002c2.812-1.84,4.698-4.792,5.163-8.137l-6.077,5.168c-0.834,0.745-1.693,1.389-2.569,1.937
			c-0.811,0.507-0.426,1.764,0.529,1.764h0.633C225.618,165.354,226.428,165.098,227.107,164.623z"/>
		<path d="M204.663,224.824h20.077c0.839,0,1.661-0.244,2.364-0.703l0.006-0.004c3.262-2.134,5.28-5.765,5.28-9.766
			c0-4-2.019-7.632-5.28-9.765l-0.006-0.004c-0.715-0.467-1.551-0.716-2.406-0.716h-28.79c-1.603,0-3.156-0.765-3.994-2.131
			c-1.816-2.961,0.413-6.646,3.739-6.646h28.861c0.914,0,1.81-0.248,2.594-0.719l0.003-0.001c3.262-2.134,5.28-5.765,5.28-9.765
			c0-4.001-2.019-7.632-5.28-9.766l-0.006-0.004c-0.719-0.459-1.555-0.703-2.408-0.703h-23.637c-3.293,0-5.541-3.629-3.763-6.615
			c0.822-1.38,2.373-2.163,3.98-2.163h4.794c0.991,0,1.334-1.308,0.472-1.796c-2.255-1.278-4.396-3.028-6.328-5.192
			c-3.531-3.955-5.464-9.185-4.976-14.97h-10.822c-7.867,0-14.67,5.954-15.213,13.802c-0.4,5.777,2.515,10.893,7.022,13.682h-3.921
			c-8,0-14.883,6.148-15.259,14.139c-0.402,8.531,6.396,15.574,14.84,15.574h3.342c-4.506,2.79-7.42,7.904-7.02,13.68
			c0.543,7.848,7.345,13.803,15.212,13.803h4.436c-4.505,2.789-7.419,7.904-7.02,13.68c0.543,7.848,7.345,13.803,15.212,13.803
			h26.976c5.4-1.093,9.369-5.918,9.369-11.459c0-4-2.019-7.632-5.28-9.765l-0.001-0.001c-0.717-0.478-1.559-0.733-2.42-0.733
			h-19.856c-2.121,0-4.057-1.432-4.47-3.512C199.796,227.245,202.063,224.824,204.663,224.824z"/>
	</g>
	<path d="M295.514,157.242c-0.685-1.429-1.599-2.777-2.769-3.973l-7.264-7.424l-35.091-33.019
		c-4.555-4.656-11.927-4.903-16.785-0.566l-26.608,23.753c-5.013,4.476-5.45,12.152-0.974,17.166
		c4.459,4.996,12.132,5.465,17.166,0.973l15.169-13.54c1.605-1.433,4.065-1.292,5.499,0.311c1.281,1.435,1.296,3.551,0.139,5.008
		c-0.382,0.48-3.12,2.874-3.627,3.327c0.508,1.782,0.798,3.655,0.798,5.598c0,5.758-2.38,11.085-6.396,14.874
		c4.016,3.788,6.396,9.116,6.396,14.874c0,5.758-2.38,11.086-6.396,14.874c4.017,3.788,6.396,9.116,6.396,14.874
		c0,5.758-2.38,11.086-6.396,14.875c4.017,3.788,6.396,9.116,6.396,14.874c0,4.176-1.311,8.204-3.517,11.459
		c8.459,0,16.929,0,25.409,0c23.178,0,42.034-18.858,42.034-42.035v-30.485C305.093,173.193,301.477,164.182,295.514,157.242z"/>
	<path d="M160.046,122.967V57.033c0-4.143-3.357-7.5-7.5-7.5c-4.143,0-7.5,3.357-7.5,7.5v65.934c0,4.143,3.357,7.5,7.5,7.5
		C156.688,130.467,160.046,127.109,160.046,122.967z"/>
	<path d="M115.792,126.164c1.765,3.748,6.236,5.353,9.981,3.587c3.747-1.766,5.353-6.234,3.587-9.981l-23.06-48.934
		c-1.765-3.747-6.233-5.354-9.981-3.587c-3.747,1.766-5.353,6.234-3.587,9.981L115.792,126.164z"/>
	<path d="M179.319,129.751c3.745,1.766,8.216,0.161,9.982-3.587l23.06-48.934c1.766-3.747,0.16-8.216-3.587-9.981
		c-3.746-1.769-8.216-0.16-9.981,3.587l-23.06,48.934C173.967,123.517,175.572,127.985,179.319,129.751z"/>
</g>
<g>
</g>
<g>
</g>
<g>
</g>
<g>
</g>
<g>
</g>
<g>
</g>
<g>
</g>
<g>
</g>
<g>
</g>
<g>
</g>
<g>
</g>
<g>
</g>
<g>
</g>
<g>
</g>
<g>
</g>
</svg>
