<?xml version="1.0" encoding="iso-8859-1"?>
<!-- Generator: Adobe Illustrator 19.0.0, SVG Export Plug-In . SVG Version: 6.00 Build 0)  -->
<svg version="1.1" id="Layer_1" xmlns="http://www.w3.org/2000/svg" xmlns:xlink="http://www.w3.org/1999/xlink" x="0px" y="0px"
	 viewBox="0 0 496 496" style="enable-background:new 0 0 496 496;" xml:space="preserve">
<path style="fill:#7A61C9;" d="M496,320.8c0,96.8-78.4,175.2-175.2,175.2H175.2C78.4,496,0,417.6,0,320.8V175.2
	C0,78.4,78.4,0,175.2,0h145.6C417.6,0,496,78.4,496,175.2V320.8z"/>
<path style="fill:#6752C1;" d="M0,175.2C0,78.4,78.4,0,175.2,0h145.6C417.6,0,496,78.4,496,175.2v145.6
	c0,96.8-78.4,175.2-175.2,175.2"/>
<g>
	<path style="fill:#5349B7;" d="M320.8,0C417.6,0,496,78.4,496,175.2v145.6c0,96.8-78.4,175.2-175.2,175.2"/>
	<path style="fill:#5349B7;" d="M162.4,248h-5.6c-8.8,0-15.2,7.2-15.2,16s7.2,16,15.2,16h5.6c8.8,0,15.2-7.2,15.2-16
		S170.4,248,162.4,248z"/>
	<path style="fill:#5349B7;" d="M250.4,248h-5.6c-8.8,0-15.2,7.2-15.2,16s7.2,16,15.2,16h5.6c8.8,0,15.2-7.2,15.2-16
		S259.2,248,250.4,248z"/>
	<path style="fill:#5349B7;" d="M339.2,248h-5.6c-8.8,0-15.2,7.2-15.2,16s7.2,16,15.2,16h5.6c8.8,0,15.2-7.2,15.2-16
		S348,248,339.2,248z"/>
</g>
<g>
	<path style="fill:#FFFFFF;" d="M162.4,232h-5.6c-8.8,0-15.2,7.2-15.2,16c0,8.8,7.2,16,15.2,16h5.6c8.8,0,15.2-7.2,15.2-16
		S170.4,232,162.4,232z"/>
	<path style="fill:#FFFFFF;" d="M250.4,232h-5.6c-8.8,0-15.2,7.2-15.2,16c0,8.8,7.2,16,15.2,16h5.6c8.8,0,15.2-7.2,15.2-16
		S259.2,232,250.4,232z"/>
	<path style="fill:#FFFFFF;" d="M339.2,232h-5.6c-8.8,0-15.2,7.2-15.2,16c0,8.8,7.2,16,15.2,16h5.6c8.8,0,15.2-7.2,15.2-16
		S348,232,339.2,232z"/>
</g>
<g>
</g>
<g>
</g>
<g>
</g>
<g>
</g>
<g>
</g>
<g>
</g>
<g>
</g>
<g>
</g>
<g>
</g>
<g>
</g>
<g>
</g>
<g>
</g>
<g>
</g>
<g>
</g>
<g>
</g>
</svg>
