<?xml version="1.0" encoding="iso-8859-1"?>
<!-- Generator: Adobe Illustrator 19.0.0, SVG Export Plug-In . SVG Version: 6.00 Build 0)  -->
<svg version="1.1" id="Layer_1" xmlns="http://www.w3.org/2000/svg" xmlns:xlink="http://www.w3.org/1999/xlink" x="0px" y="0px"
	 viewBox="0 0 512 512" style="enable-background:new 0 0 512 512;" xml:space="preserve">
<g transform="translate(0 1)">
	<g>
		<path style="fill:#FFDD09;" d="M343.893,113.002c-3.413,0-6.827-2.56-7.68-5.973c-1.707-4.267,0.853-9.387,5.12-11.093
			l49.493-16.213l-16.213-49.493c-1.707-4.267,0.853-9.387,5.12-11.093c4.267-1.707,9.387,0.853,11.093,5.12L409.6,81.428
			c0,3.413,0,5.973-0.853,7.68s-2.56,3.413-5.12,4.267l-57.173,18.773C345.6,113.002,344.747,113.002,343.893,113.002z"/>
		<path style="fill:#FFDD09;" d="M128,94.228c-3.413,0-5.973-1.707-7.68-5.12c-1.707-4.267,0-9.387,4.267-11.093
			c50.347-25.6,91.307-34.987,139.947-34.987s89.6,10.24,139.947,34.987c4.267,1.707,5.973,6.827,4.267,11.093
			c-1.707,4.267-6.827,5.973-11.093,4.267c-48.64-23.893-87.04-33.28-133.12-33.28s-84.48,9.387-133.12,33.28
			C130.56,93.375,128.853,94.228,128,94.228z"/>
		<path style="fill:#FFDD09;" d="M146.773,497.002c-3.413,0-6.827-2.56-7.68-5.973l-18.773-57.173c-0.853-2.56-0.853-5.12,0-6.827
			c0.853-1.707,2.56-3.413,5.12-4.267l57.173-18.773c4.267-1.707,9.387,0.853,11.093,5.12c1.707,4.267-0.853,9.387-5.12,11.093
			l-49.493,16.213l16.213,49.493c1.707,4.267-0.853,9.387-5.12,11.093C149.333,496.148,148.48,497.002,146.773,497.002z"/>
		<path style="fill:#FFDD09;" d="M264.533,473.108c-48.64,0-89.6-10.24-139.947-34.987c-4.267-1.707-5.973-6.827-4.267-11.093
			s6.827-5.973,11.093-4.267c47.787,23.893,86.187,33.28,133.12,33.28c46.08,0,84.48-9.387,133.12-33.28
			c4.267-1.707,9.387,0,11.093,4.267s0,9.387-4.267,11.093C354.133,463.722,313.173,473.108,264.533,473.108z"/>
		<path style="fill:#FFDD09;" d="M213.333,360.468H25.6c-9.387,0-17.067-7.68-17.067-17.067V155.668
			c0-9.387,7.68-17.067,17.067-17.067h187.733c9.387,0,17.067,7.68,17.067,17.067v187.733
			C230.4,352.788,222.72,360.468,213.333,360.468"/>
	</g>
	<path style="fill:#FD9808;" d="M213.333,138.602h-25.6c9.387,0,17.067,7.68,17.067,17.067v187.733
		c0,9.387-7.68,17.067-17.067,17.067h25.6c9.387,0,17.067-7.68,17.067-17.067V155.668C230.4,146.282,222.72,138.602,213.333,138.602
		"/>
	<path style="fill:#FFDD09;" d="M486.4,360.468H298.667c-9.387,0-17.067-7.68-17.067-17.067V155.668
		c0-9.387,7.68-17.067,17.067-17.067H486.4c9.387,0,17.067,7.68,17.067,17.067v187.733
		C503.467,352.788,495.787,360.468,486.4,360.468"/>
	<path style="fill:#FD9808;" d="M486.4,138.602h-25.6c9.387,0,17.067,7.68,17.067,17.067v187.733c0,9.387-7.68,17.067-17.067,17.067
		h25.6c9.387,0,17.067-7.68,17.067-17.067V155.668C503.467,146.282,495.787,138.602,486.4,138.602"/>
	<path style="fill:#FFFFFF;" d="M17.067,138.602h25.6c-9.387,0-17.067,7.68-17.067,17.067v187.733
		c0,9.387,7.68,17.067,17.067,17.067h-25.6C7.68,360.468,0,352.788,0,343.402V155.668C0,146.282,7.68,138.602,17.067,138.602"/>
	<path d="M213.333,369.002H25.6c-14.507,0-25.6-11.093-25.6-25.6V155.668c0-14.507,11.093-25.6,25.6-25.6h187.733
		c14.507,0,25.6,11.093,25.6,25.6v187.733C238.933,357.908,227.84,369.002,213.333,369.002z M25.6,147.135
		c-5.12,0-8.533,3.413-8.533,8.533v187.733c0,5.12,3.413,8.533,8.533,8.533h187.733c5.12,0,8.533-3.413,8.533-8.533V155.668
		c0-5.12-3.413-8.533-8.533-8.533H25.6z"/>
	<path d="M128,189.802H42.667c-5.12,0-8.533-3.413-8.533-8.533c0-5.12,3.413-8.533,8.533-8.533H128c5.12,0,8.533,3.413,8.533,8.533
		C136.533,186.388,133.12,189.802,128,189.802z"/>
	<path d="M162.133,223.935H68.267c-5.12,0-8.533-3.413-8.533-8.533c0-5.12,3.413-8.533,8.533-8.533h93.867
		c5.12,0,8.533,3.413,8.533,8.533C170.667,220.522,167.253,223.935,162.133,223.935z"/>
	<path d="M128,258.068H42.667c-5.12,0-8.533-3.413-8.533-8.533c0-5.12,3.413-8.533,8.533-8.533H128c5.12,0,8.533,3.413,8.533,8.533
		C136.533,254.655,133.12,258.068,128,258.068z"/>
	<path d="M76.8,292.202H42.667c-5.12,0-8.533-3.413-8.533-8.533s3.413-8.533,8.533-8.533H76.8c5.12,0,8.533,3.413,8.533,8.533
		S81.92,292.202,76.8,292.202z"/>
	<path d="M128,326.335H59.733c-5.12,0-8.533-3.413-8.533-8.533c0-5.12,3.413-8.533,8.533-8.533H128c5.12,0,8.533,3.413,8.533,8.533
		C136.533,322.922,133.12,326.335,128,326.335z"/>
	<path d="M486.4,369.002H298.667c-14.507,0-25.6-11.093-25.6-25.6V155.668c0-14.507,11.093-25.6,25.6-25.6H486.4
		c14.507,0,25.6,11.093,25.6,25.6v187.733C512,357.908,500.907,369.002,486.4,369.002z M298.667,147.135
		c-5.12,0-8.533,3.413-8.533,8.533v187.733c0,5.12,3.413,8.533,8.533,8.533H486.4c5.12,0,8.533-3.413,8.533-8.533V155.668
		c0-5.12-3.413-8.533-8.533-8.533H298.667z"/>
	<path d="M401.067,189.802h-85.333c-5.12,0-8.533-3.413-8.533-8.533c0-5.12,3.413-8.533,8.533-8.533h85.333
		c5.12,0,8.533,3.413,8.533,8.533C409.6,186.388,406.187,189.802,401.067,189.802z"/>
	<path d="M435.2,223.935h-93.867c-5.12,0-8.533-3.413-8.533-8.533c0-5.12,3.413-8.533,8.533-8.533H435.2
		c5.12,0,8.533,3.413,8.533,8.533C443.733,220.522,440.32,223.935,435.2,223.935z"/>
	<path d="M401.067,258.068h-85.333c-5.12,0-8.533-3.413-8.533-8.533c0-5.12,3.413-8.533,8.533-8.533h85.333
		c5.12,0,8.533,3.413,8.533,8.533C409.6,254.655,406.187,258.068,401.067,258.068z"/>
	<path d="M349.867,292.202h-34.133c-5.12,0-8.533-3.413-8.533-8.533s3.413-8.533,8.533-8.533h34.133c5.12,0,8.533,3.413,8.533,8.533
		S354.987,292.202,349.867,292.202z"/>
	<path d="M401.067,326.335H332.8c-5.12,0-8.533-3.413-8.533-8.533c0-5.12,3.413-8.533,8.533-8.533h68.267
		c5.12,0,8.533,3.413,8.533,8.533C409.6,322.922,406.187,326.335,401.067,326.335z"/>
	<path d="M335.36,106.175c-3.413,0-6.827-2.56-7.68-5.973c-1.707-4.267,0.853-8.533,5.12-10.24l49.493-16.213L366.08,24.255
		c-1.707-4.267,0.853-9.387,5.12-11.093c4.267-0.853,8.533,1.707,10.24,5.973l18.773,57.173c0.853,1.707,0.853,4.267,0,5.973
		c-0.853,1.707-2.56,3.413-5.12,4.267l-57.173,18.773C337.067,106.175,336.213,106.175,335.36,106.175z"/>
	<path d="M119.467,87.402c-3.413,0-5.973-1.707-7.68-5.12c-1.707-4.267,0-9.387,4.267-11.093C166.4,46.442,207.36,36.202,256,36.202
		s89.6,10.24,139.947,34.987c4.267,1.707,5.973,6.827,4.267,11.093c-1.707,4.267-6.827,5.973-11.093,4.267
		c-48.64-23.893-87.04-33.28-133.12-33.28s-84.48,9.387-133.12,33.28C122.027,87.402,120.32,87.402,119.467,87.402z"/>
	<path d="M138.24,485.908c-3.413,0-6.827-2.56-7.68-5.973l-18.773-57.173c-0.853-2.56-0.853-4.267,0.853-6.827
		c0.853-1.707,2.56-3.413,5.12-4.267l57.173-18.773c4.267-1.707,9.387,0.853,11.093,5.12s-0.853,9.387-5.12,11.093l-49.493,16.213
		l16.213,49.493c1.707,4.267-0.853,9.387-5.12,11.093C140.8,485.908,139.947,485.908,138.24,485.908z"/>
	<path d="M256,462.868c-48.64,0-89.6-10.24-139.947-34.987c-4.267-1.707-5.973-6.827-4.267-11.093s6.827-5.973,11.093-4.267
		c48.64,23.893,87.04,33.28,133.12,33.28s84.48-9.387,133.12-33.28c4.267-1.707,9.387,0,11.093,4.267
		c1.707,4.267,0,9.387-4.267,11.093C345.6,452.628,304.64,462.868,256,462.868z"/>
</g>
<g>
</g>
<g>
</g>
<g>
</g>
<g>
</g>
<g>
</g>
<g>
</g>
<g>
</g>
<g>
</g>
<g>
</g>
<g>
</g>
<g>
</g>
<g>
</g>
<g>
</g>
<g>
</g>
<g>
</g>
</svg>
