<?xml version="1.0" encoding="iso-8859-1"?>
<!-- Generator: Adobe Illustrator 19.0.0, SVG Export Plug-In . SVG Version: 6.00 Build 0)  -->
<svg version="1.1" id="Layer_1" xmlns="http://www.w3.org/2000/svg" xmlns:xlink="http://www.w3.org/1999/xlink" x="0px" y="0px"
	 viewBox="0 0 202.83 202.83" style="enable-background:new 0 0 202.83 202.83;" xml:space="preserve">
<g>
	<g>
		<path d="M198.933,66.346h-62.345V4.001c0-2.152-1.743-3.897-3.897-3.897H4.105C1.951,0.105,0.208,1.85,0.208,4.001v37.958
			c-0.277,0.814-0.277,1.688,0,2.502v88.126c0,2.152,1.743,3.897,3.897,3.897H66.45v62.345c0,2.152,1.743,3.897,3.897,3.897h128.586
			c2.154,0,3.897-1.745,3.897-3.897V70.243C202.829,68.091,201.086,66.346,198.933,66.346z M128.795,49.146l-17.2,17.2h-35.74
			l52.939-52.938L128.795,49.146L128.795,49.146z M122.615,66.346l6.18-6.18v6.18H122.615z M128.795,74.139v54.552H74.243V74.139
			H128.795z M8.002,7.898h25.66L8.002,33.56V7.898z M8.002,44.58L43.927,8.653c0.223-0.223,0.344-0.497,0.502-0.755h32.096
			L8.002,76.42V44.58z M66.45,128.691h-6.18l6.18-6.18V128.691z M66.45,111.492l-17.2,17.2H13.51v-0.001l52.94-52.939V111.492z
			 M8.002,123.179V87.18c0.265-0.16,0.547-0.286,0.776-0.516L86.762,8.68c0.231-0.231,0.358-0.515,0.519-0.782h36.003L8.002,123.179
			z M195.036,194.932H74.243v-58.448h58.448c2.154,0,3.897-1.745,3.897-3.897V74.139h58.448V194.932z"/>
	</g>
</g>
<g>
</g>
<g>
</g>
<g>
</g>
<g>
</g>
<g>
</g>
<g>
</g>
<g>
</g>
<g>
</g>
<g>
</g>
<g>
</g>
<g>
</g>
<g>
</g>
<g>
</g>
<g>
</g>
<g>
</g>
</svg>
