<?xml version="1.0" encoding="iso-8859-1"?>
<!-- Generator: Adobe Illustrator 19.0.0, SVG Export Plug-In . SVG Version: 6.00 Build 0)  -->
<svg version="1.1" id="Layer_1" xmlns="http://www.w3.org/2000/svg" xmlns:xlink="http://www.w3.org/1999/xlink" x="0px" y="0px"
	 viewBox="0 0 512.853 512.853" style="enable-background:new 0 0 512.853 512.853;" xml:space="preserve">
<g transform="translate(1 1)">
	<g>
		<path style="fill:#FFE100;" d="M365.933,170.093l92.16,65.707c12.8,9.387,12.8,29.013,0,38.4l-92.16,67.413V289.56h-93.867v68.267
			c0,56.32-46.08,102.4-102.4,102.4h-34.133c-10.24,24.747-28.16,42.667-34.133,42.667c-37.547,0-68.267-30.72-68.267-68.267
			s30.72-68.267,68.267-68.267c5.973,0,23.893,17.92,34.133,42.667h34.133c28.16,0,51.2-23.04,51.2-51.2v-76.8H127
			c-10.24,24.747-19.627,42.667-25.6,42.667c-37.547,0-68.267-30.72-68.267-68.267s30.72-68.267,68.267-68.267
			c5.973,0,15.36,17.92,25.6,42.667h93.867v-76.8c0-28.16-23.04-51.2-51.2-51.2h-34.133c-5.12,12.8-14.507,42.667-34.133,42.667
			c-37.547,0-68.267-30.72-68.267-68.267S63.853,7.96,101.4,7.96c5.973,0,23.893,17.92,34.133,42.667h34.133
			c56.32,0,102.4,46.08,102.4,102.4v76.8h93.867V170.093z"/>
		<polygon style="fill:#FFE100;" points="365.933,177.773 365.933,177.773 365.933,229.827 365.933,229.827 		"/>
		<polygon style="fill:#FFE100;" points="365.933,289.56 365.933,289.56 365.933,333.08 365.933,333.08 		"/>
	</g>
	<path style="fill:#FFA800;" d="M493.08,235.8l-99.84-71.68c-9.387-6.827-21.333-2.56-25.6,6.827l91.307,64.853
		c12.8,9.387,12.8,29.013,0,38.4l-90.453,65.707c4.267,9.387,16.213,12.8,25.6,6.827l99.84-71.68
		C505.88,264.813,505.88,246.04,493.08,235.8"/>
	<path style="fill:#FFE100;" d="M511,262.253c0-1.707,0-4.267,0-6.827c0-1.707,0-3.413,0-5.12c-0.853-8.533,0-17.067,0-27.307
		l-84.48-58.88c-9.387-6.827-21.333-2.56-25.6,6.827l91.307,64.853c12.8,9.387,12.8,29.013,0,38.4l-90.453,65.707
		c4.267,9.387,16.213,12.8,25.6,6.827l84.48-62.293v-22.187H511z"/>
	<g>
		<path style="fill:#FFFFFF;" d="M75.8,323.693c4.267,0,8.533-0.853,12.8-1.707c-31.573-5.973-55.467-33.28-55.467-66.56
			s23.893-60.587,55.467-66.56c-4.267-0.853-8.533-1.707-12.8-1.707c-37.547,0-68.267,30.72-68.267,68.267
			S38.253,323.693,75.8,323.693"/>
		<path style="fill:#FFFFFF;" d="M75.8,144.493c4.267,0,8.533-0.853,12.8-1.707c-31.573-5.973-55.467-33.28-55.467-66.56
			S57.027,15.64,88.6,9.667C84.333,8.813,80.067,7.96,75.8,7.96c-37.547,0-68.267,30.72-68.267,68.267S38.253,144.493,75.8,144.493"
			/>
		<path style="fill:#FFFFFF;" d="M33.133,434.627c0-33.28,23.893-60.587,55.467-66.56c-4.267-0.853-8.533-1.707-12.8-1.707
			c-37.547,0-68.267,30.72-68.267,68.267s30.72,68.267,68.267,68.267c4.267,0,8.533-0.853,12.8-1.707
			C57.027,495.213,33.133,467.907,33.133,434.627"/>
	</g>
	<path d="M75.8,511.427c-42.667,0-76.8-34.133-76.8-76.8s34.133-76.8,76.8-76.8c28.16,0,52.053,16.213,65.707,42.667h28.16
		c23.893,0,42.667-18.773,42.667-42.667V289.56h-70.827c-12.8,26.453-36.693,42.667-65.707,42.667c-42.667,0-76.8-34.133-76.8-76.8
		s34.133-76.8,76.8-76.8c28.16,0,52.053,16.213,65.707,42.667h70.827v-68.267c0-23.893-18.773-42.667-42.667-42.667h-28.16
		c-12.8,26.453-36.693,42.667-65.707,42.667c-42.667,0-76.8-34.133-76.8-76.8s34.133-76.8,76.8-76.8
		c28.16,0,52.053,16.213,65.707,42.667h28.16c19.627,0,38.4,5.12,55.467,14.507c4.267,2.56,5.12,7.68,3.413,11.947
		c-2.56,4.267-7.68,5.12-11.947,3.413c-14.507-8.533-30.72-12.8-46.933-12.8h-34.133c-3.413,0-6.827-1.707-7.68-5.12
		C117.613,30.147,98.84,16.493,75.8,16.493c-33.28,0-59.733,26.453-59.733,59.733S42.52,135.96,75.8,135.96
		c23.04,0,41.813-13.653,52.053-37.547c1.707-3.413,4.267-5.12,7.68-5.12h34.133c33.28,0,59.733,26.453,59.733,59.733v76.8
		c0,5.12-3.413,8.533-8.533,8.533h-85.333c-3.413,0-6.827-1.707-7.68-5.12c-10.24-23.893-29.013-37.547-52.053-37.547
		c-33.28,0-59.733,26.453-59.733,59.733S42.52,315.16,75.8,315.16c23.04,0,41.813-13.653,52.053-37.547
		c1.707-3.413,4.267-5.12,7.68-5.12h85.333c5.12,0,8.533,3.413,8.533,8.533v76.8c0,33.28-26.453,59.733-59.733,59.733h-34.133
		c-3.413,0-6.827-1.707-7.68-5.12c-10.24-23.893-29.013-37.547-52.053-37.547c-33.28,0-59.733,26.453-59.733,59.733
		S42.52,494.36,75.8,494.36c23.04,0,41.813-13.653,52.053-37.547c1.707-3.413,4.267-5.12,7.68-5.12h34.133
		c52.053,0,93.867-41.813,93.867-93.867V289.56c0-5.12,3.413-8.533,8.533-8.533h93.867c5.12,0,8.533,3.413,8.533,8.533v43.52
		c0,3.413,1.707,5.973,4.267,7.68c2.56,1.707,5.973,0.853,8.533-0.853l99.84-71.68c4.267-2.56,5.973-7.68,5.973-12.8
		c0-5.12-2.56-9.387-5.973-12.8l-99.84-71.68c-2.56-1.707-5.973-2.56-8.533-0.853c-2.56,1.707-4.267,4.267-4.267,7.68v52.053
		c0,5.12-3.413,8.533-8.533,8.533h-93.867c-5.12,0-8.533-3.413-8.533-8.533v-76.8c0-13.653-2.56-26.453-8.533-39.253
		c-1.707-4.267,0-9.387,4.267-11.093c4.267-1.707,9.387,0,11.093,4.267c6.827,14.507,10.24,29.867,10.24,46.08v68.267h76.8v-43.52
		c0-9.387,5.12-18.773,13.653-23.04s18.773-3.413,26.453,1.707l99.84,71.68C505.88,234.093,511,243.48,511,254.573
		c0,10.24-5.12,20.48-13.653,26.453l-99.84,71.68c-7.68,5.973-17.92,6.827-26.453,1.707c-8.533-4.267-13.653-12.8-13.653-23.04
		v-33.28h-76.8v59.733c0,61.44-49.493,110.933-110.933,110.933h-28.16C127.853,495.213,103.96,511.427,75.8,511.427z"/>
	<path d="M255,84.76c0-5.12-3.413-8.533-8.533-8.533c-5.12,0-8.533,3.413-8.533,8.533c0,5.12,3.413,8.533,8.533,8.533
		C251.587,93.293,255,89.88,255,84.76"/>
</g>
<g>
</g>
<g>
</g>
<g>
</g>
<g>
</g>
<g>
</g>
<g>
</g>
<g>
</g>
<g>
</g>
<g>
</g>
<g>
</g>
<g>
</g>
<g>
</g>
<g>
</g>
<g>
</g>
<g>
</g>
</svg>
