<?xml version="1.0" encoding="iso-8859-1"?>
<!-- Generator: Adobe Illustrator 19.0.0, SVG Export Plug-In . SVG Version: 6.00 Build 0)  -->
<svg version="1.1" id="Layer_1" xmlns="http://www.w3.org/2000/svg" xmlns:xlink="http://www.w3.org/1999/xlink" x="0px" y="0px"
	 viewBox="0 0 501.968 501.968" style="enable-background:new 0 0 501.968 501.968;" xml:space="preserve">
<g>
	<g>
		<path style="fill:#D7E6D8;" d="M342.048,381.508c16.187-16.187,62.357-24.82,93.472-28.937l34.4-175.441H32.046l50.138,255.705
			H323.34C321.766,414.47,327.994,395.562,342.048,381.508z"/>
		<path style="fill:#4FC497;" d="M435.521,352.571c-31.115,4.116-77.285,12.75-93.472,28.937
			c-14.054,14.054-20.282,32.963-18.708,51.328c1.257,14.666,7.485,28.986,18.708,40.209c25.277,25.277,66.26,25.277,91.537,0
			c25.277-25.277,32.135-123.672,32.135-123.672S452.995,350.26,435.521,352.571z"/>
	</g>
	<g>
		<path style="fill:#333333;" d="M477.643,170.776c-1.899-2.309-4.732-3.646-7.722-3.646h-69.083L318.387,5.46
			c-2.509-4.92-8.531-6.876-13.451-4.365c-4.92,2.509-6.875,8.531-4.365,13.451l77.818,152.585H32.046
			c-2.989,0-5.822,1.337-7.722,3.646s-2.667,5.345-2.092,8.278L72.371,434.76c0.92,4.692,5.032,8.076,9.813,8.076H314.77
			c2.235,10.575,6.776,20.749,13.623,29.722l-12.311,12.311c-3.905,3.905-3.905,10.237,0,14.143
			c1.953,1.952,4.512,2.929,7.071,2.929s5.118-0.977,7.071-2.929l12.312-12.311c13.322,10.165,29.297,15.267,45.281,15.267
			c19.136,0,38.271-7.284,52.84-21.852c27.139-27.139,34.312-119.595,35.04-130.048c0.201-2.887-0.858-5.72-2.904-7.767
			c-2.047-2.046-4.882-3.105-7.767-2.904c-2.281,0.159-8.47,0.625-17.033,1.539l31.742-161.881
			C480.31,176.121,479.542,173.085,477.643,170.776z M426.514,465.973c-18.922,18.922-48.359,21.05-69.664,6.412l25.09-25.09
			c3.905-3.905,3.905-10.237,0-14.143c-3.906-3.904-10.236-3.904-14.143,0l-25.09,25.09c-14.638-21.305-12.51-50.742,6.412-69.664
			c16.255-16.256,73.893-25.056,105.618-28.223C451.571,392.081,442.77,449.718,426.514,465.973z M457.77,187.131l-30.671,156.423
			c-32.098,4.634-75.042,13.803-92.122,30.883c-13.44,13.44-20.665,30.77-21.705,48.399H90.414l-34.512-176.01h359.413
			c5.522,0,10-4.478,10-10s-4.478-10-10-10H51.981l-7.783-39.695L457.77,187.131L457.77,187.131z"/>
		<path style="fill:#333333;" d="M141.353,110.27c1.455,0.742,3.006,1.094,4.535,1.094c3.64,0,7.149-1.994,8.916-5.459
			l46.593-91.359c2.51-4.92,0.555-10.942-4.365-13.451c-4.917-2.508-10.942-0.556-13.451,4.365l-46.593,91.359
			C134.478,101.739,136.433,107.761,141.353,110.27z"/>
		<path style="fill:#333333;" d="M117.788,156.475c1.455,0.742,3.006,1.094,4.535,1.094c3.64,0,7.149-1.994,8.916-5.459
			l8.033-15.752c2.51-4.92,0.555-10.942-4.365-13.451c-4.918-2.509-10.942-0.556-13.451,4.365l-8.033,15.752
			C110.913,147.944,112.868,153.966,117.788,156.475z"/>
		<path style="fill:#333333;" d="M397.967,426.993c2.559,0,5.118-0.977,7.07-2.929l5.788-5.787
			c3.905-3.904,3.906-10.236,0.001-14.142c-3.903-3.905-10.236-3.906-14.142-0.001l-5.788,5.787
			c-3.905,3.904-3.906,10.236-0.001,14.142C392.848,426.016,395.408,426.993,397.967,426.993z"/>
	</g>
</g>
<g>
</g>
<g>
</g>
<g>
</g>
<g>
</g>
<g>
</g>
<g>
</g>
<g>
</g>
<g>
</g>
<g>
</g>
<g>
</g>
<g>
</g>
<g>
</g>
<g>
</g>
<g>
</g>
<g>
</g>
</svg>
