<?xml version="1.0" encoding="iso-8859-1"?>
<!-- Generator: Adobe Illustrator 19.0.0, SVG Export Plug-In . SVG Version: 6.00 Build 0)  -->
<svg version="1.1" id="Capa_1" xmlns="http://www.w3.org/2000/svg" xmlns:xlink="http://www.w3.org/1999/xlink" x="0px" y="0px"
	 viewBox="0 0 60 60" style="enable-background:new 0 0 60 60;" xml:space="preserve">
<path d="M42,12H18C8.075,12,0,20.075,0,30s8.075,18,18,18h24c9.925,0,18-8.075,18-18S51.925,12,42,12z M18,43
	c-7.168,0-13-5.832-13-13s5.832-13,13-13s13,5.832,13,13S25.168,43,18,43z M49.707,26.707l-8,8C41.512,34.902,41.256,35,41,35
	s-0.512-0.098-0.707-0.293l-4-4c-0.391-0.391-0.391-1.023,0-1.414s1.023-0.391,1.414,0L41,32.586l7.293-7.293
	c0.391-0.391,1.023-0.391,1.414,0S50.098,26.316,49.707,26.707z"/>
<g>
</g>
<g>
</g>
<g>
</g>
<g>
</g>
<g>
</g>
<g>
</g>
<g>
</g>
<g>
</g>
<g>
</g>
<g>
</g>
<g>
</g>
<g>
</g>
<g>
</g>
<g>
</g>
<g>
</g>
</svg>
