<?xml version="1.0" encoding="iso-8859-1"?>
<!-- Generator: Adobe Illustrator 19.0.0, SVG Export Plug-In . SVG Version: 6.00 Build 0)  -->
<svg version="1.1" id="Layer_1" xmlns="http://www.w3.org/2000/svg" xmlns:xlink="http://www.w3.org/1999/xlink" x="0px" y="0px"
	 viewBox="0 0 511.998 511.998" style="enable-background:new 0 0 511.998 511.998;" xml:space="preserve">
<path style="fill:#6DC82A;" d="M166.049,76.856c-0.552,2.462-5.217,24.767,0.621,49.253c5.238,21.967,22.848,59.284,81.948,62.41
	c8.274,0.437,15.751-4.909,18.013-12.88c0.668-2.351,6.351-23.664,0.583-47.854c0-0.002-0.001-0.003-0.001-0.003
	c-3.835-16.083-11.785-29.649-23.63-40.323c-14.173-12.771-33.61-20.949-57.771-24.305C176.662,61.88,168.067,67.84,166.049,76.856z
	"/>
<path style="fill:#5EAC24;" d="M199.19,104.529c-3.695-15.496-3.182-30.112-2.167-39.385c-3.619-0.782-7.347-1.456-11.21-1.993
	c-9.151-1.271-17.746,4.689-19.764,13.704c-0.552,2.462-5.217,24.767,0.621,49.253c5.238,21.967,22.848,59.284,81.948,62.41
	c8.274,0.437,15.751-4.909,18.013-12.88c0.253-0.89,1.223-4.498,2.019-9.945C219.497,158.35,204.039,124.864,199.19,104.529z"/>
<path style="fill:#6DC82A;" d="M54.968,247.772c-0.087,2.522-0.549,25.305,9.716,48.289c9.209,20.619,33.416,54.037,92.073,46.183
	c8.213-1.1,14.572-7.737,15.321-15.988c0.221-2.434,1.866-24.43-8.274-47.137c-0.001-0.002-0.001-0.003-0.001-0.003
	c-6.742-15.097-17.064-26.959-30.677-35.259c-16.29-9.93-36.904-14.373-61.268-13.205C62.63,231.093,55.285,238.539,54.968,247.772z
	"/>
<path style="fill:#5EAC24;" d="M97.204,274.482c-7.966-17.837-9.471-35.546-9.705-43.766c-5.028-0.292-10.238-0.325-15.641-0.066
	c-9.228,0.442-16.573,7.889-16.889,17.122c-0.087,2.522-0.549,25.305,9.716,48.289c9.209,20.619,33.416,54.037,92.073,46.183
	c8.213-1.1,14.572-7.737,15.321-15.988c0.05-0.549,0.171-2.101,0.214-4.425C125.815,321.789,105.468,292.986,97.204,274.482z"/>
<path style="fill:#6DC82A;" d="M332.059,371.838c-1.186-2.227-12.178-22.189-32.559-36.961
	c-18.285-13.252-55.958-30.089-102.829,6.043c-6.563,5.06-8.751,13.986-5.274,21.507c1.026,2.218,10.6,22.09,30.734,36.685
	c0.001,0.001,0.003,0.002,0.003,0.002c13.388,9.703,28.257,14.815,44.197,15.196c19.073,0.455,39.146-6.005,59.663-19.199
	C333.764,390.113,336.402,379.991,332.059,371.838z"/>
<path style="fill:#5EAC24;" d="M279.183,380.488c-15.94-0.38-30.809-5.492-44.197-15.196c0,0-0.001-0.001-0.003-0.002
	c-14.755-10.695-23.833-24.216-28.037-31.555c-3.373,2.121-6.798,4.503-10.275,7.185c-6.563,5.06-8.751,13.986-5.274,21.507
	c1.026,2.218,10.6,22.089,30.735,36.685c0.001,0.001,0.003,0.002,0.003,0.002c13.388,9.703,28.257,14.815,44.197,15.196
	c19.073,0.455,39.146-6.005,59.663-19.199c7.77-4.997,10.408-15.119,6.065-23.272c-0.304-0.572-1.261-2.32-2.853-4.845
	C312.044,376.324,295.257,380.872,279.183,380.488z"/>
<path style="fill:#6DC82A;" d="M404.008,274.166c-2.286,1.069-23.059,10.437-48.227,10.017
	c-22.578-0.376-62.816-9.523-78.616-66.556c-2.212-7.986,1.395-16.439,8.691-20.368c2.152-1.159,21.737-11.305,46.602-10.892
	c0.002,0,0.003,0,0.003,0c16.532,0.275,31.493,5.113,44.47,14.375c15.528,11.085,27.705,28.3,36.195,51.169
	C416.342,260.572,412.376,270.25,404.008,274.166z"/>
<path style="fill:#5EAC24;" d="M376.074,250.363c-21.524-0.359-59.096-8.688-76.246-58.874c-7.812,2.552-12.931,5.211-13.971,5.77
	c-7.295,3.929-10.903,12.381-8.691,20.368c15.801,57.033,56.038,66.181,78.616,66.556c25.169,0.419,45.942-8.948,48.227-10.017
	c8.368-3.915,12.334-13.594,9.118-22.255c-0.827-2.229-1.701-4.387-2.597-6.508C401.739,248.011,389.537,250.587,376.074,250.363z"
	/>
<path style="fill:#A0815C;" d="M127.521,503.891c-1.187,0-2.392-0.141-3.598-0.432c-8.17-1.982-13.185-10.209-11.206-18.377
	c15.112-62.322,38.694-123.906,70.093-183.041c25.079-47.235,55.177-93.026,89.456-136.101
	C330.73,92.476,380.61,52.74,382.705,51.084c6.593-5.211,16.165-4.09,21.377,2.504c5.21,6.592,4.092,16.159-2.497,21.372
	c-0.509,0.402-49.734,39.706-106.073,110.654c-51.791,65.218-120.412,171.358-153.213,306.64
	C140.611,499.217,134.382,503.89,127.521,503.891z"/>
<path style="fill:#6DC82A;" d="M441.584,8.273c-2.502-0.329-25.136-2.973-48.998,5.04c-21.408,7.189-56.992,28.079-54.8,87.22
	c0.307,8.28,6.303,15.247,14.445,16.784c2.402,0.454,24.139,4.201,47.714-3.715c0.002-0.001,0.003-0.001,0.003-0.001
	c15.674-5.264,28.471-14.4,38.038-27.154c11.447-15.262,17.847-35.356,19.021-59.72C457.452,17.5,450.744,9.475,441.584,8.273z"/>
<path style="fill:#5EAC24;" d="M422.348,39.904c12.654-4.249,24.963-5.501,34.107-5.691c0.236-2.45,0.429-4.936,0.552-7.481
	c0.445-9.228-6.262-17.254-15.422-18.454c-2.502-0.328-25.136-2.973-48.998,5.04c-21.408,7.189-56.992,28.079-54.8,87.22
	c0.307,8.28,6.303,15.247,14.445,16.784c1.171,0.221,6.949,1.223,15.289,1.275C368.888,65.963,402.006,46.735,422.348,39.904z"/>
<path d="M202.233,267.37c3.656,2.602,9.019-0.212,10.449-2.579c4.723-7.82,9.653-15.695,14.65-23.406
	c2.286-3.528,1.279-8.239-2.247-10.525c-3.526-2.283-8.239-1.278-10.525,2.247c-5.085,7.846-10.1,15.859-14.906,23.815
	C197.481,260.519,198.809,264.932,202.233,267.37z"/>
<path d="M427.592,87.088c-2.436,2.675-5.098,5.165-7.911,7.406c-3.287,2.619-3.525,7.185-1.212,10.693
	c3.281,4.981,9.293,2.328,10.693,1.212c3.445-2.743,6.701-5.791,9.681-9.063c2.831-3.107,2.607-7.919-0.5-10.75
	C435.237,83.759,430.423,83.982,427.592,87.088z"/>
<path d="M442.572,0.729c-2.681-0.35-26.924-3.187-52.409,5.372c-11.127,3.737-27.041,11.36-39.666,26.459
	c-12.426,14.863-19.205,33.844-20.255,56.516c-0.12,0.107-0.241,0.21-0.355,0.325c-17.996,18.212-35.61,37.754-52.538,58.226
	c0,0,7.934-82.357-90.488-92.013c-13.03-1.278-25.377,6.797-28.238,19.58c-0.591,2.639-5.589,26.538,0.645,52.678
	c2.723,11.419,8.887,27.953,22.794,41.882c14.451,14.477,34.042,23.093,58.276,25.71c-3.19,4.417-6.336,8.849-9.426,13.292
	c-2.399,3.451-1.546,8.193,1.904,10.592c1.324,0.92,7.316,2.684,10.592-1.904c11.214-15.704,22.728-31.578,34.814-46.765
	c17.188-21.597,35.208-42.24,53.684-61.519c1.913,4.91,5.317,9.064,9.709,11.928c-18.025,18.871-35.503,38.942-52.061,59.795
	c-52.265,65.816-121.522,172.951-154.65,309.578c-0.83,3.427-4.013,6.618-9.187,5.603c-4.117-0.808-6.592-5.112-5.603-9.188
	c14.962-61.706,38.318-122.695,69.419-181.266c2.752-5.182,5.603-10.419,8.475-15.562c2.049-3.669,0.735-8.305-2.936-10.353
	c-3.666-2.047-8.306-0.735-10.353,2.936c-2.501,4.48-4.974,9.025-7.395,13.55c-1.386-6.357-12.272-78.462-105.827-73.13
	c-13.077,0.746-24.131,11.364-24.131,24.46c0,108.959,99.666,103.343,103.383,103.027c-19.314,43.45-34.55,87.905-45.425,132.751
	c-2.965,12.232,4.724,24.039,16.812,27.566c16.535,4.825,25.068-6.533,27.56-16.808c10.343-42.658,24.291-82.389,40.153-118.826
	c51.299,78.904,119.173,39.852,140.262,26.29c11.015-7.084,14.822-21.69,8.667-33.25c-1.27-2.386-13.042-23.769-34.812-39.545
	c-16.465-11.934-47.872-26.941-87.394-8.863c18.236-34.342,37.585-64.847,56.119-91.084c36.944,97.007,132.146,53.411,134.543,52.29
	c11.862-5.552,17.584-19.517,13.027-31.796c-9.029-24.321-22.12-42.729-38.908-54.714c-14.258-10.176-30.665-15.489-48.766-15.791
	l-0.068-0.001c-8.643-0.124-16.658,0.908-23.658,2.417c15.801-19.352,32.376-37.931,49.399-55.401
	c23.75,5.364,44.754-5.197,45.09-5.365c3.758-1.88,4.855-6.265,3.403-10.21c-2.252-6.117-9.13-3.843-9.13-3.843
	c-0.06,0.019-0.119,0.039-0.178,0.06c-22.369,7.982-42.543,3.665-43.804,3.426c-4.681-0.884-8.075-4.828-8.252-9.589
	c-1.91-51.479,25.929-71.767,49.617-79.723c22.244-7.468,43.262-5.013,45.587-4.709c5.193,0.681,9.063,5.311,8.811,10.543
	c-0.718,14.914-3.513,28.178-8.306,39.423c-1.648,3.867,0.15,8.336,4.017,9.984c3.868,1.65,8.336-0.15,9.984-4.017
	c5.502-12.91,8.7-27.936,9.506-44.659C465.238,14.012,455.559,2.431,442.572,0.729z M174.072,124.342
	c-6.359-22.576-1.109-43.537-0.598-45.823c1.146-5.111,6.104-8.55,11.292-7.83c22.626,3.144,40.701,10.687,53.723,22.421
	c10.6,9.554,17.747,21.706,21.246,36.121l0.075,0.318c3.91,16.401,2.116,31.379,0.613,39.142c-3.122,4.008-6.214,8.046-9.273,12.111
	C250.452,180.913,189.655,179.67,174.072,124.342z M71.632,292.958c-10.227-21.131-9.14-42.582-9.06-44.925
	c0.18-5.234,4.418-9.531,9.65-9.782c22.808-1.091,41.974,2.978,56.942,12.103c12.273,7.481,21.588,18.2,27.691,31.863l0.044,0.097
	c6.991,15.71,7.84,31.272,7.798,38.411c-2.175,4.411-4.299,8.836-6.389,13.27C157.493,334.337,96.055,343.417,71.632,292.958z
	 M295.033,341.039c18.29,14.701,29.208,32.307,30.309,34.374c2.461,4.624,0.94,10.464-3.465,13.296
	c-19.214,12.357-37.874,18.657-55.365,17.991c-46.926-1.785-68.627-48.485-68.773-49.012c2.008-4.318,4.04-8.589,6.095-12.807
	C204.245,344.688,253.322,307.513,295.033,341.039z M332.332,193.976l0.04,0.001c14.944,0.256,28.45,4.616,40.14,12.959
	c14.267,10.184,25.531,26.207,33.482,47.623c1.823,4.91-0.466,10.495-5.208,12.713c-2.124,0.994-21.436,9.589-44.876,9.302
	c-59.21-0.726-71.769-62.734-71.776-63.625c2.567-3.465,5.11-6.842,7.623-10.13C297.155,200.283,313.169,193.63,332.332,193.976z"/>
<g>
</g>
<g>
</g>
<g>
</g>
<g>
</g>
<g>
</g>
<g>
</g>
<g>
</g>
<g>
</g>
<g>
</g>
<g>
</g>
<g>
</g>
<g>
</g>
<g>
</g>
<g>
</g>
<g>
</g>
</svg>
