<svg width="64px" height="64px" viewBox="0 0 64 64" xmlns="http://www.w3.org/2000/svg">
  <g fill="none" fill-rule="evenodd">
    <circle cx="49" cy="16" r="13" fill="#E43535"/>
    <circle cx="49" cy="25" r="2" fill="#FFF"/>
    <path stroke="#FFF" stroke-linecap="round" stroke-width="4" d="M50.3819417,18.65833 C53.1433654,18.65833 55.3819417,16.4197538 55.3819417,13.65833 C55.3819417,10.8969063 53.1433654,8.65833004 50.3819417,8.65833004 C47.6205179,8.65833004 45.3819417,10.8969063 45.3819417,13.65833 L42.6180583,13.65833" transform="matrix(0 -1 -1 0 62.658 62.658)"/>
    <g transform="matrix(-1 0 0 1 46 7)">
      <path fill="#80D25B" d="M23.4866036,48.0097065 C31.1650958,48.0097065 38.5800473,40.5183261 38.5800473,32.8398339 C38.5800473,25.1613417 26.148885,4.16107354 26.148885,4.16107354 C26.148885,4.16107354 11.1666278,23.5669596 10.2595821,31.8158361 C9.35253646,40.0647126 15.8081114,48.0097065 23.4866036,48.0097065 Z" transform="rotate(36 24.377 26.085)"/>
      <path stroke="#22BA8E" stroke-linecap="round" stroke-width="3" d="M32.7630713,16.2432328 C32.7630713,16.2432328 18.185904,25.1905182 12.8848872,41.669352 C11.5209508,45.9093085 9.46860808,48.9344412 7.17240395,51.0891989"/>
      <polyline stroke="#22BA8E" stroke-linecap="round" stroke-width="2" points="24.948 37.035 15.205 36.622 10.489 28.312"/>
      <polyline stroke="#22BA8E" stroke-linecap="round" stroke-width="2" points="27.941 28.341 21.296 26.982 19.162 21.564"/>
    </g>
  </g>
</svg>
