<?xml version="1.0" encoding="iso-8859-1"?>
<!-- Generator: Adobe Illustrator 19.0.0, SVG Export Plug-In . SVG Version: 6.00 Build 0)  -->
<svg version="1.1" id="Layer_1" xmlns="http://www.w3.org/2000/svg" xmlns:xlink="http://www.w3.org/1999/xlink" x="0px" y="0px"
	 viewBox="0 0 512 512" style="enable-background:new 0 0 512 512;" xml:space="preserve">
<g>
	<g>
		<g>
			<path d="M463.663,11.064H48.337C21.683,11.064,0,32.747,0,59.401v294.097c0,26.654,21.683,48.337,48.337,48.337h136.991
				c-1.233,26.667-6.004,52.516-14.227,77.08h-35.669c-6.08,0-11.011,4.93-11.011,11.011s4.931,11.011,11.011,11.011h241.135
				c6.08,0,11.011-4.93,11.011-11.011s-4.931-11.011-11.011-11.011h-35.67c-8.223-24.564-12.994-50.414-14.227-77.08h136.992
				c26.654,0,48.337-21.683,48.337-48.337V59.401C512,32.747,490.317,11.064,463.663,11.064z M194.243,478.915
				c7.593-24.705,11.997-50.531,13.141-77.075h97.233c1.144,26.545,5.548,52.37,13.141,77.075H194.243z M489.979,353.498
				c0,14.511-11.806,26.316-26.316,26.316H48.337c-14.511,0-26.316-11.805-26.316-26.316v-2.279h467.957V353.498z M489.979,329.197
				H22.021V59.401c0-14.511,11.806-26.316,26.316-26.316h415.326c14.511,0,26.316,11.805,26.316,26.316V329.197z"/>
			<path d="M456.946,138.546c-6.08,0-11.011,4.93-11.011,11.011v139.976c0,6.081,4.931,11.011,11.011,11.011
				s11.011-4.93,11.011-11.011V149.557C467.957,143.476,463.026,138.546,456.946,138.546z"/>
			<path d="M456.946,95.054c-6.08,0-11.011,4.93-11.011,11.011v0.963c0,6.081,4.931,11.011,11.011,11.011s11.011-4.93,11.011-11.011
				v-0.963C467.957,99.983,463.026,95.054,456.946,95.054z"/>
			<path d="M333.075,150.676v-11.029c0-42.499-34.576-77.075-77.075-77.075c-42.499,0-77.075,34.576-77.075,77.075v11.029
				c-14.435,0.392-26.059,12.247-26.059,26.775v96.3c0,14.773,12.019,26.792,26.794,26.792h152.682
				c14.774,0,26.794-12.019,26.794-26.792v-96.3C359.134,162.923,347.51,151.068,333.075,150.676z M200.946,139.647
				c0-30.357,24.697-55.054,55.054-55.054c30.357,0,55.054,24.697,55.054,55.054v11.011H200.946V139.647z M337.113,273.75
				c0,2.632-2.141,4.771-4.772,4.771H179.659c-2.632,0-4.772-2.141-4.772-4.771v-96.3c0-2.632,2.141-4.771,4.772-4.771h152.682
				c2.632,0,4.772,2.141,4.772,4.771V273.75z"/>
			<path d="M256,208.68c-6.08,0-11.011,4.93-11.011,11.011v11.819c0,6.081,4.931,11.011,11.011,11.011s11.011-4.93,11.011-11.011
				v-11.819C267.011,213.61,262.08,208.68,256,208.68z"/>
		</g>
	</g>
</g>
<g>
</g>
<g>
</g>
<g>
</g>
<g>
</g>
<g>
</g>
<g>
</g>
<g>
</g>
<g>
</g>
<g>
</g>
<g>
</g>
<g>
</g>
<g>
</g>
<g>
</g>
<g>
</g>
<g>
</g>
</svg>
